<svg id="Group_14" data-name="Group 14" xmlns="http://www.w3.org/2000/svg" xmlns:xlink="http://www.w3.org/1999/xlink" width="609.466" height="570.861" viewBox="0 0 609.466 570.861">
  <defs>
    <clipPath id="clip-path">
      <rect id="Rectangle_6" data-name="Rectangle 6" width="609.466" height="570.861" fill="none"/>
    </clipPath>
    <clipPath id="clip-path-3">
      <rect id="Rectangle_4" data-name="Rectangle 4" width="5.188" height="3.358" fill="none"/>
    </clipPath>
  </defs>
  <g id="Group_13" data-name="Group 13" clip-path="url(#clip-path)">
    <g id="Group_12" data-name="Group 12">
      <g id="Group_11" data-name="Group 11" clip-path="url(#clip-path)">
        <path id="Path_228" data-name="Path 228" d="M301.388,14.788S187.5-30.528,132.689,37.5s78.567,156.865-59.128,224.729C-23.676,310.149,26.061,439.793,129,423.149c117.138-18.939,37.509-85.16,296.13-45.751,128.1,19.521,222.758-252.7-123.746-362.611" transform="translate(7.217 0)" fill="#e6e9f4"/>
        <path id="Path_229" data-name="Path 229" d="M319.869,36.875a13.3,13.3,0,0,0-4.43-20.124c-5.869-3.054-13.276-4.73-18.8,1.407-10.694,11.874,5.345,19.892,13.833,22.269,3.6,1.009,7.752-1.533,9.4-3.552" transform="translate(99.642 4.762)" fill="#e6e9f4"/>
        <path id="Path_230" data-name="Path 230" d="M55.132,186.971a13.3,13.3,0,0,0-20.427-2.708c-4.875,4.473-8.981,10.863-5.1,18.153,7.508,14.106,20.522,1.769,25.654-5.4,2.177-3.039,1.206-7.809-.129-10.049" transform="translate(9.542 61.424)" fill="#e6e9f4"/>
        <path id="Path_231" data-name="Path 231" d="M430.507,238.665s10.72-23.434-.512-32.8-24.642,19.158-20.1,31.925,17.678,9.257,20.609.871" transform="translate(139.048 69.362)" fill="#e6e9f4"/>
        <path id="Path_232" data-name="Path 232" d="M604.253,419.758c0,7.024-135.267,12.718-302.127,12.718S0,426.782,0,419.758,135.267,407.04,302.127,407.04s302.127,5.694,302.127,12.718" transform="translate(0 138.385)" fill="#c7cad8"/>
        <path id="Path_233" data-name="Path 233" d="M359.693,91.058C388.82,57.715,365.945,8.2,365.945,8.2s-40.8,24.9-59.436,55.014,1.368,62.728,1.368,62.728,27.029-6.515,51.816-34.889" transform="translate(101.507 2.789)" fill="#c7cad8"/>
        <path id="Path_234" data-name="Path 234" d="M305.966,123.21a1.328,1.328,0,0,1-1.372-1.742c10.15-30.372,50-99.96,50.4-100.659a1.327,1.327,0,1,1,2.3,1.321c-.4.7-40.118,70.055-50.185,100.178a1.328,1.328,0,0,1-1.144.9" transform="translate(103.532 6.848)" fill="#9a9fb2"/>
        <path id="Path_235" data-name="Path 235" d="M330.088,49.578a1.327,1.327,0,0,1-.689-2.518l20.936-10.043a1.327,1.327,0,0,1,1.148,2.393L330.547,49.452a1.274,1.274,0,0,1-.46.126" transform="translate(111.733 12.541)" fill="#9a9fb2"/>
        <path id="Path_236" data-name="Path 236" d="M328.4,58.349a1.327,1.327,0,0,1-1.348-.835l-7.287-18.465a1.327,1.327,0,0,1,2.468-.973l7.287,18.464a1.329,1.329,0,0,1-1.12,1.809" transform="translate(108.683 12.66)" fill="#9a9fb2"/>
        <path id="Path_237" data-name="Path 237" d="M322.775,62.161a1.326,1.326,0,0,1-.352-2.626l27.06-4.969a1.327,1.327,0,0,1,.478,2.61L322.9,62.143c-.043.008-.086.013-.127.017" transform="translate(109.248 18.544)" fill="#9a9fb2"/>
        <path id="Path_238" data-name="Path 238" d="M322.8,72.956a1.326,1.326,0,0,1-1.245-.626L308.25,50.746a1.327,1.327,0,0,1,2.258-1.394l13.31,21.586a1.327,1.327,0,0,1-1.013,2.018" transform="translate(104.732 16.564)" fill="#9a9fb2"/>
        <path id="Path_239" data-name="Path 239" d="M313.758,81.513a1.327,1.327,0,0,1-.567-2.569l26.056-9.474a1.326,1.326,0,1,1,.906,2.492L314.1,81.438a1.337,1.337,0,0,1-.34.075" transform="translate(106.182 23.591)" fill="#9a9fb2"/>
        <path id="Path_240" data-name="Path 240" d="M313.143,90.749a1.327,1.327,0,0,1-1.333-.8l-8.994-20.87a1.327,1.327,0,0,1,2.437-1.051L314.246,88.9a1.325,1.325,0,0,1-.693,1.742,1.294,1.294,0,0,1-.41.1" transform="translate(102.914 22.857)" fill="#9a9fb2"/>
        <path id="Path_241" data-name="Path 241" d="M150.727,245.264c-27.479-30.48-54.112-66.509-69.321-90.766C61.534,122.806,52.6,96.89,54.859,77.468a2.347,2.347,0,1,1,4.663.541C55.579,111.96,89.245,171.437,156.5,244.543Z" transform="translate(18.535 25.632)" fill="#9a9fb2"/>
        <path id="Path_242" data-name="Path 242" d="M72.169,116.9s-15.437,12.107-35.661-15.865c0,0,28.885-11.829,35.661,15.865" transform="translate(12.412 33.498)" fill="#c7cad8"/>
        <path id="Path_243" data-name="Path 243" d="M71.139,132.664S58.192,117.925,84.995,96.176c0,0,13.42,28.18-13.855,36.488" transform="translate(23.123 32.698)" fill="#c7cad8"/>
        <path id="Path_244" data-name="Path 244" d="M58.684,98.01s-17.12-9.58.9-39.02c0,0,22.045,22.095-.9,39.02" transform="translate(17.453 20.055)" fill="#c7cad8"/>
        <path id="Path_245" data-name="Path 245" d="M94.063,149.2s-10.432,16.614-38.925-2.868c0,0,23.18-20.9,38.925,2.868" transform="translate(18.746 46.861)" fill="#c7cad8"/>
        <path id="Path_246" data-name="Path 246" d="M94.552,166.3s-15.3-12.278,7.338-38.334c0,0,18.09,25.435-7.338,38.334" transform="translate(30.427 43.506)" fill="#c7cad8"/>
        <path id="Path_247" data-name="Path 247" d="M114.2,174.65s-10.114,16.809-38.972-2.129c0,0,22.78-21.338,38.972,2.129" transform="translate(25.575 55.634)" fill="#c7cad8"/>
        <path id="Path_248" data-name="Path 248" d="M114.463,193.322s18.9-5.247,8.379-38.121c0,0-26.656,16.239-8.379,38.121" transform="translate(36.738 52.765)" fill="#c7cad8"/>
        <path id="Path_249" data-name="Path 249" d="M297.632,413.206c25.888-31.843,50.65-69.182,64.6-94.183,18.229-32.665,25.827-59,22.584-78.284a2.347,2.347,0,0,0-4.628.779c5.668,33.706-24.92,94.822-88.362,171.263Z" transform="translate(99.215 81.181)" fill="#9a9fb2"/>
        <path id="Path_250" data-name="Path 250" d="M354.686,280.877s16.033,11.3,34.8-17.664c0,0-29.45-10.341-34.8,17.664" transform="translate(120.586 88.853)" fill="#c7cad8"/>
        <path id="Path_251" data-name="Path 251" d="M352.676,296.507s12.178-15.38-15.7-35.733c0,0-11.965,28.828,15.7,35.733" transform="translate(113.691 88.658)" fill="#c7cad8"/>
        <path id="Path_252" data-name="Path 252" d="M362.634,261.377s16.609-10.44-2.888-38.924c0,0-20.89,23.191,2.888,38.924" transform="translate(119.422 75.63)" fill="#c7cad8"/>
        <path id="Path_253" data-name="Path 253" d="M335.385,314.152s11.265,16.061,38.728-4.849c0,0-24.216-19.692-38.728,4.849" transform="translate(114.024 102.615)" fill="#c7cad8"/>
        <path id="Path_254" data-name="Path 254" d="M330.542,331.354s14.654-13.042-9.283-37.911c0,0-16.768,26.325,9.283,37.911" transform="translate(107.416 99.765)" fill="#c7cad8"/>
        <path id="Path_255" data-name="Path 255" d="M316.593,340.6s10.958,16.271,38.813-4.114c0,0-23.838-20.149-38.813,4.114" transform="translate(107.635 111.728)" fill="#c7cad8"/>
        <path id="Path_256" data-name="Path 256" d="M311.883,359.325s-19.146-4.276-10.311-37.644c0,0,27.45,14.858,10.311,37.644" transform="translate(101.737 109.365)" fill="#c7cad8"/>
        <path id="Path_257" data-name="Path 257" d="M415.408,88.416a24.431,24.431,0,0,1-13.215-3.752l-10.878,2.707a.9.9,0,0,1-1.006-1.317l5.143-9.183a13.957,13.957,0,0,1-1.089-5.4,15.393,15.393,0,0,1,6.24-12.052,24.838,24.838,0,0,1,29.611,0,14.757,14.757,0,0,1,0,24.1,23.762,23.762,0,0,1-14.805,4.9M402.361,82.79a.9.9,0,0,1,.507.155,22.517,22.517,0,0,0,12.541,3.665c10.609,0,19.241-6.792,19.241-15.14s-8.632-15.142-19.241-15.142S396.167,63.12,396.167,71.47a12.215,12.215,0,0,0,1.114,5.079.9.9,0,0,1-.035.815L392.9,85.115l9.238-2.3a.937.937,0,0,1,.218-.027" transform="translate(132.658 18.537)" fill="#9a9fb2"/>
        <path id="Path_258" data-name="Path 258" d="M416.87,72.242a3.8,3.8,0,1,1,3.8-3.8,3.8,3.8,0,0,1-3.8,3.8m0-5.83a2.033,2.033,0,1,0,2.033,2.033,2.036,2.036,0,0,0-2.033-2.033" transform="translate(140.436 21.979)" fill="#9a9fb2"/>
        <path id="Path_259" data-name="Path 259" d="M409.982,72.242a3.8,3.8,0,1,1,3.8-3.8,3.8,3.8,0,0,1-3.8,3.8m0-5.83a2.033,2.033,0,1,0,2.033,2.033,2.035,2.035,0,0,0-2.033-2.033" transform="translate(138.095 21.979)" fill="#9a9fb2"/>
        <path id="Path_260" data-name="Path 260" d="M403.1,72.242a3.8,3.8,0,1,1,3.8-3.8,3.8,3.8,0,0,1-3.8,3.8m0-5.83a2.033,2.033,0,1,0,2.033,2.033,2.035,2.035,0,0,0-2.033-2.033" transform="translate(135.753 21.979)" fill="#9a9fb2"/>
        <path id="Path_261" data-name="Path 261" d="M84.887,49.518a14.55,14.55,0,1,1,14.55-14.549,14.565,14.565,0,0,1-14.55,14.549m0-27.475A12.926,12.926,0,1,0,97.812,34.969,12.94,12.94,0,0,0,84.887,22.043" transform="translate(23.913 6.942)" fill="#9a9fb2"/>
        <path id="Path_262" data-name="Path 262" d="M81.4,34.773a.813.813,0,0,1-.812-.812V24.2a.812.812,0,1,1,1.624,0v8.852l7.43-.888a.812.812,0,0,1,.192,1.612l-8.337,1a.777.777,0,0,1-.1.005" transform="translate(27.399 7.95)" fill="#9a9fb2"/>
        <path id="Path_263" data-name="Path 263" d="M44.98,172.875H35.192a.812.812,0,0,1-.812-.812v-7.578H26.8a.813.813,0,0,1-.812-.812v-9.787a.812.812,0,0,1,.812-.812h7.58v-7.58a.811.811,0,0,1,.812-.812H44.98a.811.811,0,0,1,.812.812v7.58h7.58a.812.812,0,0,1,.812.812v9.787a.813.813,0,0,1-.812.812h-7.58v7.578a.812.812,0,0,1-.812.812M36,171.251h8.163v-7.578a.811.811,0,0,1,.812-.812h7.58V154.7H44.98a.811.811,0,0,1-.812-.812v-7.58H36v7.58a.811.811,0,0,1-.812.812h-7.58v8.163h7.58a.811.811,0,0,1,.812.812Z" transform="translate(8.835 49.189)" fill="#9a9fb2"/>
        <path id="Path_264" data-name="Path 264" d="M434.143,89.56H391.9a.812.812,0,0,1,0-1.624h42.244a.812.812,0,1,1,0,1.624" transform="translate(132.962 29.896)" fill="#9a9fb2"/>
        <path id="Path_265" data-name="Path 265" d="M275.119,21.318a5.831,5.831,0,1,1,5.83-5.832,5.837,5.837,0,0,1-5.83,5.832m0-10.038a4.207,4.207,0,1,0,4.206,4.206,4.211,4.211,0,0,0-4.206-4.206" transform="translate(91.553 3.283)" fill="#9a9fb2"/>
        <path id="Path_266" data-name="Path 266" d="M291.229,15.011H172.014a.812.812,0,1,1,0-1.624H291.229a.812.812,0,0,1,0,1.624" transform="translate(58.205 4.551)" fill="#9a9fb2"/>
        <path id="Path_267" data-name="Path 267" d="M392.091,50.317V522.634a26.8,26.8,0,0,1-26.8,26.8h-235.2a26.8,26.8,0,0,1-26.8-26.8V50.317a26.79,26.79,0,0,1,26.8-26.8h235.2a26.8,26.8,0,0,1,26.8,26.8" transform="translate(35.112 7.994)" fill="#0c0b0b"/>
        <path id="Path_268" data-name="Path 268" d="M318.814,134.193h6.892a1.131,1.131,0,0,0,1.131-1.131V84.515a1.131,1.131,0,0,0-1.131-1.131h-6.892Z" transform="translate(108.39 28.349)" fill="#453f3f"/>
        <path id="Path_269" data-name="Path 269" d="M105.766,149.318H97.343a1.382,1.382,0,0,1-1.383-1.382V88.3a1.383,1.383,0,0,1,1.383-1.382h8.423Z" transform="translate(32.624 29.551)" fill="#453f3f"/>
        <path id="Path_270" data-name="Path 270" d="M105.766,202.2H97.343a1.382,1.382,0,0,1-1.383-1.382V141.188a1.383,1.383,0,0,1,1.383-1.382h8.423Z" transform="translate(32.624 47.531)" fill="#453f3f"/>
        <path id="Path_271" data-name="Path 271" d="M375.324,45.3V520.857a11.806,11.806,0,0,1-11.807,11.812H125.072a11.8,11.8,0,0,1-11.809-11.812V45.3A11.784,11.784,0,0,1,125.072,33.49H363.518A11.813,11.813,0,0,1,375.324,45.3" transform="translate(38.507 11.386)" fill="#c7cad8"/>
        <path id="Path_272" data-name="Path 272" d="M375.324,338.007V423.25a11.8,11.8,0,0,1-11.807,11.811H125.072a11.8,11.8,0,0,1-11.809-11.811v-85.3a19.074,19.074,0,0,1,19-17.354H356.319a19.075,19.075,0,0,1,19,17.416" transform="translate(38.507 108.995)" fill="#fff"/>
        <path id="Path_273" data-name="Path 273" d="M218.177,362.826H139.52a4.1,4.1,0,0,1-4.1-4.1v-10a4.1,4.1,0,0,1,4.1-4.1h78.657a4.1,4.1,0,0,1,4.1,4.1v10a4.1,4.1,0,0,1-4.1,4.1" transform="translate(46.039 117.165)" fill="#efad1a"/>
        <path id="Path_274" data-name="Path 274" d="M218.177,392.659H139.52a4.1,4.1,0,0,1-4.1-4.1v-10a4.1,4.1,0,0,1,4.1-4.1h78.657a4.1,4.1,0,0,1,4.1,4.1v10a4.1,4.1,0,0,1-4.1,4.1" transform="translate(46.039 127.307)" fill="#777d15"/>
        <path id="Path_275" data-name="Path 275" d="M307.235,362.826H228.578a4.1,4.1,0,0,1-4.1-4.1v-10a4.1,4.1,0,0,1,4.1-4.1h78.657a4.1,4.1,0,0,1,4.1,4.1v10a4.1,4.1,0,0,1-4.1,4.1" transform="translate(76.317 117.165)" fill="#ef6931"/>
        <path id="Path_276" data-name="Path 276" d="M307.235,392.659H228.578a4.1,4.1,0,0,1-4.1-4.1v-10a4.1,4.1,0,0,1,4.1-4.1h78.657a4.1,4.1,0,0,1,4.1,4.1v10a4.1,4.1,0,0,1-4.1,4.1" transform="translate(76.317 127.307)" fill="#c7cad8"/>
        <path id="Path_277" data-name="Path 277" d="M290.26,332.534H167.136a2.841,2.841,0,0,1,0-5.683H290.26a2.841,2.841,0,0,1,0,5.683" transform="translate(55.857 111.123)" fill="#c7cad8"/>
        <path id="Path_278" data-name="Path 278" d="M113.262,45.3V67.445H375.325V45.3a11.813,11.813,0,0,0-11.808-11.808H125.07A11.784,11.784,0,0,0,113.262,45.3" transform="translate(38.507 11.386)" fill="#fff"/>
        <path id="Path_279" data-name="Path 279" d="M279.56,47.922a4.451,4.451,0,1,1-4.451-4.451,4.451,4.451,0,0,1,4.451,4.451" transform="translate(92.018 14.779)" fill="#777d15"/>
        <path id="Path_280" data-name="Path 280" d="M291.14,47.922a4.451,4.451,0,1,1-4.451-4.451,4.451,4.451,0,0,1,4.451,4.451" transform="translate(95.955 14.779)" fill="#ef6931"/>
        <path id="Path_281" data-name="Path 281" d="M302.671,47.922a4.451,4.451,0,1,1-4.451-4.451,4.451,4.451,0,0,1,4.451,4.451" transform="translate(99.875 14.779)" fill="#0c0b0b"/>
        <path id="Path_282" data-name="Path 282" d="M294.787,33.233l-6.522,6.523a34.839,34.839,0,0,1-24.633,10.2H192.348a34.836,34.836,0,0,1-24.632-10.2l-6.471-6.471Z" transform="translate(54.82 11.299)" fill="#0c0b0b"/>
        <path id="Path_283" data-name="Path 283" d="M175.762,40.616h94.777a.318.318,0,0,0,.318-.318V36.432a.319.319,0,0,0-.318-.318H175.762a.319.319,0,0,0-.318.318V40.3a.319.319,0,0,0,.318.318" transform="translate(59.647 12.278)" fill="#453f3f"/>
        <path id="Path_284" data-name="Path 284" d="M342.151,248.953H139.17a7.47,7.47,0,0,1-7.47-7.47V165.214a7.469,7.469,0,0,1,7.47-7.469h202.98a7.469,7.469,0,0,1,7.47,7.469v76.269a7.47,7.47,0,0,1-7.47,7.47" transform="translate(44.775 53.63)" fill="#9a9fb2"/>
        <path id="Path_285" data-name="Path 285" d="M338.274,245.189H135.293a7.47,7.47,0,0,1-7.47-7.469V161.45a7.469,7.469,0,0,1,7.47-7.469h202.98a7.469,7.469,0,0,1,7.47,7.469v76.27a7.47,7.47,0,0,1-7.47,7.469" transform="translate(43.457 52.35)" fill="#fff"/>
        <path id="Path_286" data-name="Path 286" d="M308.066,176.885h-113.3a3.394,3.394,0,0,1-3.394-3.393v-1.333a3.393,3.393,0,0,1,3.394-3.393h113.3a3.393,3.393,0,0,1,3.393,3.393v1.333a3.394,3.394,0,0,1-3.393,3.393" transform="translate(65.064 57.377)" fill="#ef6931"/>
        <path id="Path_287" data-name="Path 287" d="M241.754,189.356H194.1a2.725,2.725,0,0,1-2.724-2.726V185.56a2.724,2.724,0,0,1,2.724-2.724h47.652a2.724,2.724,0,0,1,2.724,2.724v1.071a2.725,2.725,0,0,1-2.724,2.726" transform="translate(65.064 62.161)" fill="#c7cad8"/>
        <path id="Path_288" data-name="Path 288" d="M241.754,210.573H194.1a2.725,2.725,0,0,1-2.724-2.726v-1.071a2.724,2.724,0,0,1,2.724-2.724h47.652a2.724,2.724,0,0,1,2.724,2.724v1.071a2.725,2.725,0,0,1-2.724,2.726" transform="translate(65.064 69.374)" fill="#c7cad8"/>
        <path id="Path_289" data-name="Path 289" d="M241.754,199.867H194.1a2.724,2.724,0,0,1-2.724-2.724v-1.072a2.724,2.724,0,0,1,2.724-2.724h47.652a2.724,2.724,0,0,1,2.724,2.724v1.072a2.724,2.724,0,0,1-2.724,2.724" transform="translate(65.064 65.734)" fill="#c7cad8"/>
        <path id="Path_290" data-name="Path 290" d="M291.74,189.356H244.089a2.726,2.726,0,0,1-2.726-2.726V185.56a2.725,2.725,0,0,1,2.726-2.724H291.74a2.725,2.725,0,0,1,2.726,2.724v1.071a2.726,2.726,0,0,1-2.726,2.726" transform="translate(82.059 62.161)" fill="#c7cad8"/>
        <path id="Path_291" data-name="Path 291" d="M291.74,210.573H244.089a2.726,2.726,0,0,1-2.726-2.726v-1.071a2.725,2.725,0,0,1,2.726-2.724H291.74a2.725,2.725,0,0,1,2.726,2.724v1.071a2.726,2.726,0,0,1-2.726,2.726" transform="translate(82.059 69.374)" fill="#c7cad8"/>
        <path id="Path_292" data-name="Path 292" d="M291.74,199.867H244.089a2.725,2.725,0,0,1-2.726-2.724v-1.072a2.725,2.725,0,0,1,2.726-2.724H291.74a2.725,2.725,0,0,1,2.726,2.724v1.072a2.725,2.725,0,0,1-2.726,2.724" transform="translate(82.059 65.734)" fill="#c7cad8"/>
        <path id="Path_293" data-name="Path 293" d="M167.456,224.681A29.247,29.247,0,1,1,196.7,195.435a29.279,29.279,0,0,1-29.246,29.246m0-54.505a25.258,25.258,0,1,0,25.259,25.259,25.287,25.287,0,0,0-25.259-25.259" transform="translate(46.989 56.5)" fill="#ef6931"/>
        <path id="Path_294" data-name="Path 294" d="M160.542,195.429a1.993,1.993,0,0,1-1.994-1.994V174.062a1.994,1.994,0,1,1,3.988,0v17.126l14.311-1.71a1.994,1.994,0,0,1,.473,3.96l-16.541,1.978a2.013,2.013,0,0,1-.237.013" transform="translate(53.903 58.5)" fill="#ef6931"/>
        <path id="Path_295" data-name="Path 295" d="M342.151,164.652H139.17a7.47,7.47,0,0,1-7.47-7.469V80.913a7.469,7.469,0,0,1,7.47-7.469h202.98a7.469,7.469,0,0,1,7.47,7.469v76.27a7.47,7.47,0,0,1-7.47,7.469" transform="translate(44.775 24.969)" fill="#9a9fb2"/>
        <path id="Path_296" data-name="Path 296" d="M338.274,160.888H135.293a7.47,7.47,0,0,1-7.47-7.47V77.149a7.469,7.469,0,0,1,7.47-7.469h202.98a7.469,7.469,0,0,1,7.47,7.469v76.269a7.47,7.47,0,0,1-7.47,7.47" transform="translate(43.457 23.69)" fill="#fff"/>
        <path id="Path_297" data-name="Path 297" d="M184.54,137.943H151.479a10.123,10.123,0,0,1-10.124-10.124V94.759a10.123,10.123,0,0,1,10.124-10.124H184.54a10.123,10.123,0,0,1,10.124,10.124V127.82a10.123,10.123,0,0,1-10.124,10.124" transform="translate(48.058 28.774)" fill="#777d15"/>
        <path id="Path_298" data-name="Path 298" d="M156.326,122.838a2.549,2.549,0,0,1-2.263-1.371l-5.136-9.825a2.554,2.554,0,1,1,4.528-2.366l3.621,6.928,24.2-21.477a2.555,2.555,0,0,1,3.391,3.822l-26.645,23.645a2.547,2.547,0,0,1-1.7.645" transform="translate(50.533 31.986)" fill="#fff"/>
        <path id="Path_299" data-name="Path 299" d="M308.066,92.584h-113.3a3.394,3.394,0,0,1-3.394-3.393V87.858a3.393,3.393,0,0,1,3.394-3.393h113.3a3.393,3.393,0,0,1,3.393,3.393v1.333a3.394,3.394,0,0,1-3.393,3.393" transform="translate(65.064 28.716)" fill="#777d15"/>
        <path id="Path_300" data-name="Path 300" d="M241.754,105.056H194.1a2.724,2.724,0,0,1-2.724-2.726V101.26a2.724,2.724,0,0,1,2.724-2.724h47.652a2.724,2.724,0,0,1,2.724,2.724v1.071a2.724,2.724,0,0,1-2.724,2.726" transform="translate(65.064 33.5)" fill="#c7cad8"/>
        <path id="Path_301" data-name="Path 301" d="M241.754,126.272H194.1a2.724,2.724,0,0,1-2.724-2.726v-1.071a2.724,2.724,0,0,1,2.724-2.724h47.652a2.724,2.724,0,0,1,2.724,2.724v1.071a2.724,2.724,0,0,1-2.724,2.726" transform="translate(65.064 40.713)" fill="#c7cad8"/>
        <path id="Path_302" data-name="Path 302" d="M241.754,115.567H194.1a2.724,2.724,0,0,1-2.724-2.726v-1.069a2.724,2.724,0,0,1,2.724-2.726h47.652a2.724,2.724,0,0,1,2.724,2.726v1.069a2.724,2.724,0,0,1-2.724,2.726" transform="translate(65.064 37.074)" fill="#c7cad8"/>
        <path id="Path_303" data-name="Path 303" d="M291.74,105.056H244.089a2.725,2.725,0,0,1-2.726-2.726V101.26a2.725,2.725,0,0,1,2.726-2.724H291.74a2.725,2.725,0,0,1,2.726,2.724v1.071a2.725,2.725,0,0,1-2.726,2.726" transform="translate(82.059 33.5)" fill="#c7cad8"/>
        <path id="Path_304" data-name="Path 304" d="M291.74,126.272H244.089a2.725,2.725,0,0,1-2.726-2.726v-1.071a2.725,2.725,0,0,1,2.726-2.724H291.74a2.725,2.725,0,0,1,2.726,2.724v1.071a2.725,2.725,0,0,1-2.726,2.726" transform="translate(82.059 40.713)" fill="#c7cad8"/>
        <path id="Path_305" data-name="Path 305" d="M291.74,115.567H244.089a2.725,2.725,0,0,1-2.726-2.726v-1.069a2.725,2.725,0,0,1,2.726-2.726H291.74a2.725,2.725,0,0,1,2.726,2.726v1.069a2.725,2.725,0,0,1-2.726,2.726" transform="translate(82.059 37.074)" fill="#c7cad8"/>
        <path id="Path_306" data-name="Path 306" d="M342.151,335.235H139.17a7.47,7.47,0,0,1-7.47-7.469V251.5a7.47,7.47,0,0,1,7.47-7.469h202.98a7.47,7.47,0,0,1,7.47,7.469v76.27a7.47,7.47,0,0,1-7.47,7.469" transform="translate(44.775 82.964)" fill="#9a9fb2"/>
        <path id="Path_307" data-name="Path 307" d="M338.274,331.471H135.293a7.47,7.47,0,0,1-7.47-7.47V247.732a7.469,7.469,0,0,1,7.47-7.469h202.98a7.469,7.469,0,0,1,7.47,7.469V324a7.47,7.47,0,0,1-7.47,7.47" transform="translate(43.457 81.685)" fill="#fff"/>
        <path id="Path_308" data-name="Path 308" d="M183.773,276.369H143.489a2.3,2.3,0,0,1-2.3-2.3v-.906a2.3,2.3,0,0,1,2.3-2.3h40.284a2.3,2.3,0,0,1,2.3,2.3v.906a2.3,2.3,0,0,1-2.3,2.3" transform="translate(48 92.086)" fill="#c7cad8"/>
        <path id="Path_309" data-name="Path 309" d="M183.773,294.3H143.489a2.3,2.3,0,0,1-2.3-2.3v-.906a2.3,2.3,0,0,1,2.3-2.3h40.284a2.3,2.3,0,0,1,2.3,2.3V292a2.3,2.3,0,0,1-2.3,2.3" transform="translate(48 98.183)" fill="#c7cad8"/>
        <path id="Path_310" data-name="Path 310" d="M183.773,285.254H143.489a2.3,2.3,0,0,1-2.3-2.3v-.906a2.3,2.3,0,0,1,2.3-2.3h40.284a2.3,2.3,0,0,1,2.3,2.3v.906a2.3,2.3,0,0,1-2.3,2.3" transform="translate(48 95.106)" fill="#c7cad8"/>
        <path id="Path_311" data-name="Path 311" d="M224.449,276.369H184.165a2.3,2.3,0,0,1-2.3-2.3v-.906a2.3,2.3,0,0,1,2.3-2.3h40.284a2.3,2.3,0,0,1,2.3,2.3v.906a2.3,2.3,0,0,1-2.3,2.3" transform="translate(61.829 92.086)" fill="#c7cad8"/>
        <path id="Path_312" data-name="Path 312" d="M224.449,294.3H184.165a2.3,2.3,0,0,1-2.3-2.3v-.906a2.3,2.3,0,0,1,2.3-2.3h40.284a2.3,2.3,0,0,1,2.3,2.3V292a2.3,2.3,0,0,1-2.3,2.3" transform="translate(61.829 98.183)" fill="#c7cad8"/>
        <path id="Path_313" data-name="Path 313" d="M224.449,285.254H184.165a2.3,2.3,0,0,1-2.3-2.3v-.906a2.3,2.3,0,0,1,2.3-2.3h40.284a2.3,2.3,0,0,1,2.3,2.3v.906a2.3,2.3,0,0,1-2.3,2.3" transform="translate(61.829 95.106)" fill="#c7cad8"/>
        <path id="Path_314" data-name="Path 314" d="M224.6,280.6a8.366,8.366,0,0,0,1.156,4.476c.373.635.76,1.262,1.119,1.905L232.98,298l4.005-7.217c1.063-1.916,2.216-3.78,3.334-5.664a8.45,8.45,0,0,0-7.848-12.742A8.492,8.492,0,0,0,224.6,280.6m4.884-.8a3.568,3.568,0,1,1,3.568,3.568,3.566,3.566,0,0,1-3.568-3.568" transform="translate(76.358 92.596)" fill="#efad1a"/>
        <path id="Path_315" data-name="Path 315" d="M243.217,277.95c.063-.264.125-.529.19-.792a5.921,5.921,0,0,1,1.3-2.475,6.059,6.059,0,0,1,1.556-1.3,1.777,1.777,0,0,1,2.324.454q1.6,1.93,3.184,3.878a1.842,1.842,0,0,1-.261,2.6c-.574.509-1.179.982-1.773,1.469a2.6,2.6,0,0,1-.232.151,17.067,17.067,0,0,0,7.261,8.863c.418-.347.855-.712,1.293-1.075.224-.186.446-.374.678-.551a1.828,1.828,0,0,1,2.215-.114,2.8,2.8,0,0,1,.591.583c.965,1.163,1.915,2.34,2.881,3.5a2.471,2.471,0,0,1,.568,1.248c-.017.173-.035.346-.051.519a3.985,3.985,0,0,1-.515.866,6.647,6.647,0,0,1-1.927,1.4,5.422,5.422,0,0,1-2.72.545,10.342,10.342,0,0,1-1.859-.355,14.886,14.886,0,0,1-4.315-2.081,22.62,22.62,0,0,1-3.637-3.079,36.877,36.877,0,0,1-4.024-5.026,18.333,18.333,0,0,1-2.3-4.5,10.244,10.244,0,0,1-.5-2.506c-.023-.346-.031-.691-.046-1.037.039-.394.079-.789.118-1.185" transform="translate(82.649 92.86)" fill="#ef6931"/>
        <path id="Path_316" data-name="Path 316" d="M262.574,285.18a12.821,12.821,0,1,0,12.821-12.821,12.836,12.836,0,0,0-12.821,12.821m7.194,4.734a16.93,16.93,0,0,1-.685-4.492h5.8v4.492Zm3.023,6.767a11.747,11.747,0,0,1-7.677-5.735h3.9a14.251,14.251,0,0,0,2.228,4.086,13.028,13.028,0,0,0,1.544,1.65m2.088-5.735v6.013a10.725,10.725,0,0,1-2.846-2.6,13.182,13.182,0,0,1-1.915-3.416ZM270.4,278.867a16,16,0,0,1,4.02-5.436c.153-.013.307-.023.458-.029v5.466Zm-4.958,0a11.855,11.855,0,0,1,7.181-5.148,17.335,17.335,0,0,0-1.623,2,16.855,16.855,0,0,0-1.727,3.149Zm3.647,5.523a14.7,14.7,0,0,1,.89-4.492h4.9v4.492Zm-5.459,0a11.644,11.644,0,0,1,1.225-4.492h4.029a15.812,15.812,0,0,0-.827,4.492Zm4.421,1.032a18.19,18.19,0,0,0,.642,4.492H264.6a11.651,11.651,0,0,1-.99-4.492Zm14.566,0h4.564a11.674,11.674,0,0,1-.989,4.492h-4.217a18.127,18.127,0,0,0,.642-4.492m-6.707-6.555V273.4c.11.005.218.011.327.019a15.273,15.273,0,0,1,2.6,2.91,15.83,15.83,0,0,1,1.434,2.537Zm4.781,1.032a14.8,14.8,0,0,1,.888,4.492h-5.669V279.9Zm.7-1.032a16.933,16.933,0,0,0-1.727-3.149,17.35,17.35,0,0,0-1.656-2.034,11.83,11.83,0,0,1,7.332,5.183Zm.19,6.555a16.915,16.915,0,0,1-.683,4.492h-4.993v-4.492Zm1.025-1.032a15.859,15.859,0,0,0-.827-4.492h4.149a11.663,11.663,0,0,1,1.225,4.492Zm3.065,6.555a11.9,11.9,0,0,1-7.835,5.767,12.946,12.946,0,0,0,1.581-1.682,14.284,14.284,0,0,0,2.228-4.086Zm-5.127,0a12.142,12.142,0,0,1-4.639,5.94v-5.94Z" transform="translate(89.27 92.597)" fill="#777d15"/>
        <path id="Path_317" data-name="Path 317" d="M155.632,257.685c0,5.627-3.606,8.911-8.911,8.911a9.428,9.428,0,0,1-4.985-1.262l1.952-3.789a4.792,4.792,0,0,0,2.917.85,3.262,3.262,0,0,0,3.491-2.734,5.312,5.312,0,0,1-3.192.9,5.208,5.208,0,0,1-5.513-5.144c0-3.445,2.894-5.627,6.523-5.627,4.592,0,7.717,2.641,7.717,7.9m-5.7-2.526a1.654,1.654,0,0,0-3.307,0,1.654,1.654,0,0,0,3.307,0" transform="translate(48.07 84.922)" fill="#453f3f"/>
        <path id="Path_318" data-name="Path 318" d="M152.857,255.451a3.033,3.033,0,0,1,6.063,0,3.032,3.032,0,0,1-6.063,0m0,7.1a3.033,3.033,0,0,1,6.063,0,3.032,3.032,0,0,1-6.063,0" transform="translate(51.968 85.849)" fill="#453f3f"/>
        <path id="Path_319" data-name="Path 319" d="M171.309,260.992c0,2.756-2.2,5.511-7.348,5.511a13.651,13.651,0,0,1-6.339-1.446l1.837-4a8.8,8.8,0,0,0,4.317,1.171c1.218,0,2.09-.413,2.09-1.24,0-.689-.528-1.1-1.905-1.1h-2.136v-3.33l2.365-2.411h-5.742V250.06h11.989v3.33l-2.985,3.031a4.567,4.567,0,0,1,3.858,4.571" transform="translate(53.588 85.015)" fill="#453f3f"/>
        <path id="Path_320" data-name="Path 320" d="M168.743,258.192c0-5.328,3.031-8.406,7.28-8.406s7.28,3.078,7.28,8.406-3.032,8.406-7.28,8.406-7.28-3.078-7.28-8.406m9.117,0c0-3.1-.781-4.065-1.837-4.065s-1.837.965-1.837,4.065.78,4.065,1.837,4.065,1.837-.965,1.837-4.065" transform="translate(57.369 84.922)" fill="#453f3f"/>
        <path id="Path_321" data-name="Path 321" d="M198.685,258.551V265.3h-4.823v-1.654c-.6,1.262-1.792,1.883-3.559,1.883-3.078,0-4.663-1.746-4.663-3.9,0-2.433,1.838-3.788,5.742-3.788h2.09c-.161-.965-.9-1.47-2.365-1.47a5.666,5.666,0,0,0-3.216.988l-1.654-3.422a11.393,11.393,0,0,1,5.649-1.424c4.317,0,6.8,1.861,6.8,6.041m-5.19,2.664v-.872h-1.286c-1.1,0-1.584.367-1.584,1.056,0,.575.458,1.01,1.239,1.01a1.643,1.643,0,0,0,1.631-1.194" transform="translate(63.114 85.848)" fill="#453f3f"/>
        <path id="Path_322" data-name="Path 322" d="M218.688,258.138V265.3H213.5v-6.27c0-1.561-.575-2.159-1.4-2.159-.918,0-1.631.62-1.631,2.3V265.3h-5.19v-6.27c0-1.561-.528-2.159-1.4-2.159-.919,0-1.631.62-1.631,2.3V265.3h-5.191V252.74h4.938v1.171a4.906,4.906,0,0,1,3.56-1.4,4.49,4.49,0,0,1,3.926,1.905,5.327,5.327,0,0,1,4.2-1.905c2.847,0,5.006,1.676,5.006,5.627" transform="translate(66.994 85.849)" fill="#453f3f"/>
        <path id="Path_323" data-name="Path 323" d="M298.375,261.647H227.351a2.754,2.754,0,0,1-2.754-2.754v-1.081a2.752,2.752,0,0,1,2.754-2.752h71.024a2.752,2.752,0,0,1,2.754,2.752v1.081a2.754,2.754,0,0,1-2.754,2.754" transform="translate(76.359 86.715)" fill="#efad1a"/>
        <path id="Path_324" data-name="Path 324" d="M118.995,381.35H31.414a.652.652,0,0,1-.653-.653v-5.735a.653.653,0,0,1,.653-.653h87.581a.653.653,0,0,1,.653.653V380.7a.652.652,0,0,1-.653.653" transform="translate(10.458 127.258)" fill="#0c0b0b"/>
        <path id="Path_325" data-name="Path 325" d="M34.3,316.092h81.252a2.445,2.445,0,0,1,2.444,2.445v9.983a2.445,2.445,0,0,1-2.444,2.445H34.3a2.445,2.445,0,0,1-2.445-2.445v-9.983a2.445,2.445,0,0,1,2.445-2.445" transform="translate(10.828 107.465)" fill="#453f3f"/>
        <path id="Path_326" data-name="Path 326" d="M59.524,285.091S25.263,278.319,15.7,254.416s25.4-41.83,43.821-28.994c19.712,13.731,0,59.669,0,59.669" transform="translate(4.786 75.185)" fill="#777d15"/>
        <path id="Path_327" data-name="Path 327" d="M75.882,347.012a.619.619,0,0,1-.612-.529c-3.282-22.2-16.511-54.143-27.031-77.03-11.407-24.819-22.174-44.625-22.281-44.822a.62.62,0,1,1,1.088-.594c.109.2,10.894,20.042,22.32,44.9C59.919,291.895,73.193,323.957,76.5,346.3a.619.619,0,0,1-.523.7.716.716,0,0,1-.091.007" transform="translate(8.799 76.058)" fill="#0c0b0b"/>
        <path id="Path_328" data-name="Path 328" d="M57.212,279.7a.618.618,0,0,1-.548-.327c-14.9-27.755-39.1-47.891-39.342-48.092a.62.62,0,1,1,.789-.955c.244.2,24.625,20.484,39.645,48.462a.62.62,0,0,1-.544.913" transform="translate(5.813 78.259)" fill="#0c0b0b"/>
        <path id="Path_329" data-name="Path 329" d="M58.7,277.044a.619.619,0,0,1-.473-.218A118.963,118.963,0,0,0,28.8,251.662a73.922,73.922,0,0,0-13.648-6.593.62.62,0,0,1,.374-1.182A73.423,73.423,0,0,1,29.4,250.573a120.131,120.131,0,0,1,29.77,25.45.619.619,0,0,1-.47,1.021" transform="translate(5.005 82.907)" fill="#0c0b0b"/>
        <path id="Path_330" data-name="Path 330" d="M46.915,277.3a.62.62,0,0,1-.587-.421c-8.353-24.515-5.28-54.309-5.249-54.608a.62.62,0,0,1,1.233.133c-.031.295-3.074,29.825,5.19,54.076a.62.62,0,0,1-.387.787.613.613,0,0,1-.2.034" transform="translate(13.77 75.378)" fill="#0c0b0b"/>
        <path id="Path_331" data-name="Path 331" d="M47.319,279.622a.622.622,0,0,1-.611-.519,86.315,86.315,0,0,1,1.506-36.066,57.215,57.215,0,0,1,5.246-13.589.62.62,0,0,1,1.064.635A57.4,57.4,0,0,0,49.4,243.407,85.075,85.075,0,0,0,47.931,278.9a.62.62,0,0,1-.511.713.664.664,0,0,1-.1.008" transform="translate(15.468 77.905)" fill="#0c0b0b"/>
        <path id="Path_332" data-name="Path 332" d="M76.636,289.517s34.6-4.733,45.561-28.027-22.876-43.26-42.028-31.538c-20.491,12.541-3.532,59.565-3.532,59.565" transform="translate(23.814 77.003)" fill="#777d15"/>
        <path id="Path_333" data-name="Path 333" d="M65.326,342.935H65.32a.621.621,0,0,1-.614-.627c.137-11.434,2.63-24.457,7.413-38.711a254.925,254.925,0,0,1,15.694-36.24,333.688,333.688,0,0,1,22.639-37.367.62.62,0,1,1,1,.728A332.225,332.225,0,0,0,88.9,267.947C78.6,287.736,66.251,316.7,65.947,342.323a.621.621,0,0,1-.62.612" transform="translate(21.999 78.105)" fill="#0c0b0b"/>
        <path id="Path_334" data-name="Path 334" d="M76.208,283.81a.609.609,0,0,1-.324-.092.619.619,0,0,1-.2-.852c16.649-27.039,42.189-45.843,42.445-46.031a.62.62,0,0,1,.73,1c-.255.185-25.6,18.853-42.121,45.679a.618.618,0,0,1-.528.295" transform="translate(25.699 80.478)" fill="#0c0b0b"/>
        <path id="Path_335" data-name="Path 335" d="M75.617,281.067a.62.62,0,0,1-.448-1.049A120.226,120.226,0,0,1,106.4,256.375a73.54,73.54,0,0,1,14.237-5.853.62.62,0,0,1,.3,1.2,73.988,73.988,0,0,0-14.014,5.774,118.976,118.976,0,0,0-30.858,23.377.617.617,0,0,1-.448.192" transform="translate(25.498 85.166)" fill="#0c0b0b"/>
        <path id="Path_336" data-name="Path 336" d="M78.184,282.025a.61.61,0,0,1-.234-.047.619.619,0,0,1-.339-.808c9.684-23.719,8.395-53.377,8.38-53.674a.62.62,0,0,1,1.238-.059c.015.3,1.319,30.225-8.47,54.2a.623.623,0,0,1-.575.386" transform="translate(26.37 77.123)" fill="#0c0b0b"/>
        <path id="Path_337" data-name="Path 337" d="M77.355,284.432a.7.7,0,0,1-.138-.015.622.622,0,0,1-.468-.742,85.059,85.059,0,0,0,.636-35.519,57.332,57.332,0,0,0-4.328-13.6.621.621,0,0,1,1.1-.572,57.349,57.349,0,0,1,4.431,13.877,86.33,86.33,0,0,1-.631,36.09.622.622,0,0,1-.6.484" transform="translate(24.815 79.436)" fill="#0c0b0b"/>
        <path id="Path_338" data-name="Path 338" d="M72.467,256.937S43.149,237.959,43.12,212.215,82.2,182.764,94.562,201.509c13.227,20.055-22.095,55.428-22.095,55.428" transform="translate(14.66 64.508)" fill="#777d15"/>
        <path id="Path_339" data-name="Path 339" d="M62.291,322.8a.591.591,0,0,1-.143-.017.62.62,0,0,1-.461-.745C66.859,300.2,66.4,265.632,65.1,240.476,63.7,213.2,61.029,190.813,61,190.589a.619.619,0,0,1,1.23-.147c.027.224,2.7,22.651,4.107,49.971,1.3,25.237,1.761,59.933-3.445,81.914a.62.62,0,0,1-.6.477" transform="translate(20.738 64.561)" fill="#0c0b0b"/>
        <path id="Path_340" data-name="Path 340" d="M69.87,253.365a.62.62,0,0,1-.615-.549c-3.564-31.3-18.587-58.966-18.738-59.242a.62.62,0,0,1,1.087-.6c.153.277,15.291,28.148,18.883,59.7a.619.619,0,0,1-.545.686.648.648,0,0,1-.071,0" transform="translate(17.149 65.499)" fill="#0c0b0b"/>
        <path id="Path_341" data-name="Path 341" d="M72.234,251.444a.62.62,0,0,1-.587-.422,118.976,118.976,0,0,0-18.012-34.269A73.849,73.849,0,0,0,43.4,205.575a.62.62,0,1,1,.785-.959A73.485,73.485,0,0,1,54.59,215.96a120.222,120.222,0,0,1,18.23,34.667.619.619,0,0,1-.389.785.64.64,0,0,1-.2.032" transform="translate(14.678 69.518)" fill="#0c0b0b"/>
        <path id="Path_342" data-name="Path 342" d="M64.94,247.262h-.033a.619.619,0,0,1-.587-.65c1.317-25.866,15.206-52.405,15.345-52.671a.621.621,0,0,1,1.1.58c-.139.263-13.9,26.566-15.2,52.153a.62.62,0,0,1-.618.588" transform="translate(21.867 65.823)" fill="#0c0b0b"/>
        <path id="Path_343" data-name="Path 343" d="M65.054,248.967a.558.558,0,0,1-.133-.015.619.619,0,0,1-.473-.738,87.476,87.476,0,0,1,14.791-33.1,58.988,58.988,0,0,1,9.941-10.839.62.62,0,0,1,.762.978,59.058,59.058,0,0,0-9.736,10.638,86.226,86.226,0,0,0-14.547,32.59.62.62,0,0,1-.606.488" transform="translate(21.906 69.404)" fill="#0c0b0b"/>
        <path id="Path_344" data-name="Path 344" d="M110.674,287.57l-1.022,2.712L109.005,292l-1.853,4.922-.649,1.718-1.9,5.054-.646,1.717L95.787,327.1H51.169L43,305.411l-.646-1.717-1.9-5.054-.647-1.718L37.95,292l-.645-1.718-1.024-2.712a2.84,2.84,0,0,1,2.659-3.843h69.075a2.842,2.842,0,0,1,2.659,3.843" transform="translate(12.272 96.462)" fill="#ef6931"/>
        <path id="Path_345" data-name="Path 345" d="M109.345,288.619l-.646,1.718H37.644L37,288.619Z" transform="translate(12.579 98.125)" fill="#bb4000"/>
        <path id="Path_346" data-name="Path 346" d="M106.211,293.574l-.649,1.718H39.511l-.647-1.718Z" transform="translate(13.213 99.809)" fill="#bb4000"/>
        <path id="Path_347" data-name="Path 347" d="M103.012,298.628l-.646,1.715H41.414l-.646-1.715Z" transform="translate(13.86 101.528)" fill="#bb4000"/>
        <path id="Path_348" data-name="Path 348" d="M66.149,327.193l-2.475,7.977L29.231,446.194H22.5L44.342,337.437,46.4,327.193Z" transform="translate(7.649 111.239)" fill="#0c0b0b"/>
        <path id="Path_349" data-name="Path 349" d="M116.713,446.193h-6.732L74.519,331.885l-1.455-4.693H92.809l.5,2.488h0Z" transform="translate(24.84 111.239)" fill="#0c0b0b"/>
        <path id="Path_350" data-name="Path 350" d="M118.995,369.926H31.414a.653.653,0,0,1-.653-.653v-5.735a.653.653,0,0,1,.653-.653h87.581a.653.653,0,0,1,.653.653v5.735a.653.653,0,0,1-.653.653" transform="translate(10.458 123.374)" fill="#453f3f"/>
        <path id="Path_351" data-name="Path 351" d="M378.436,96.445s11.079,8.528,17.928,30.967,6.642,56.669,15.541,60.982,45.236,13.189,44.956,26.333-33.526,8.876-52.375-.2-20.894-68.981-20.894-68.981Z" transform="translate(128.661 32.789)" fill="#ef6931"/>
        <path id="Path_352" data-name="Path 352" d="M459.08,171.99s-13,21.26-26.893,23.889a4.574,4.574,0,0,1-5.028-2.723l-3.48-8.124s20.045-16.283,35.4-13.042" transform="translate(144.042 58.328)" fill="#ffc2a9"/>
        <path id="Path_353" data-name="Path 353" d="M421.871,196.225l.9.963a1.6,1.6,0,0,0,1.833.363c5.813-2.659,34.035-15.592,39.016-18.344a1.593,1.593,0,0,0,.813-1.249l1.6-17.321a1.6,1.6,0,0,0-.354-1.159l-1.2-1.47-1.908,18.612Z" transform="translate(143.428 53.72)" fill="#453f3f"/>
        <path id="Path_354" data-name="Path 354" d="M421.854,196l1.072-17.3a2.9,2.9,0,0,1,1.652-1.986L463.165,158.1c.87-.419,1.541-.21,1.5.466l-1.073,17.294a2.9,2.9,0,0,1-1.651,1.986l-38.586,18.618c-.87.421-1.541.212-1.5-.465" transform="translate(143.421 53.678)" fill="#0c0b0b"/>
        <path id="Path_355" data-name="Path 355" d="M427.625,189.091l.78-12.577a2.9,2.9,0,0,1,1.652-1.986l28.613-13.8c.87-.421,1.541-.212,1.5.465l-.78,12.576a2.9,2.9,0,0,1-1.651,1.987l-28.614,13.806c-.87.419-1.541.21-1.5-.466" transform="translate(145.383 54.569)" fill="#453f3f"/>
        <path id="Path_356" data-name="Path 356" d="M425.534,180.992c-1.343.649-2.379.327-2.314-.718a4.482,4.482,0,0,1,2.549-3.065c1.343-.649,2.38-.327,2.314.718a4.479,4.479,0,0,1-2.549,3.065" transform="translate(143.885 60.134)" fill="#453f3f"/>
        <path id="Path_357" data-name="Path 357" d="M429.022,172.2s-.792-7,4.123-8.8,13.384-.036,13.384-.036c2.419,3.512-3.885,4.745-11.615,5.6Z" transform="translate(145.843 55.277)" fill="#ffc2a9"/>
        <path id="Path_358" data-name="Path 358" d="M436.06,184.556s3.58,3.173,5.679,1.239,1.463-8.638,1.08-10.977-3.057,2.472-3.272,4.942a18.217,18.217,0,0,1-.907,3.6Z" transform="translate(148.252 59.223)" fill="#ffc2a9"/>
        <path id="Path_359" data-name="Path 359" d="M441.593,182.143s3.822,3.169,6.313.875,1.737-10.254,1.281-13.029-3.835,2.923-3.885,5.864-1.345,3.856-1.345,3.856Z" transform="translate(150.133 57.541)" fill="#ffc2a9"/>
        <path id="Path_360" data-name="Path 360" d="M444.539,180.31s3.377,2.8,5.577.773,1.533-9.057,1.132-11.509-3.389,2.581-3.432,5.18-1.189,3.406-1.189,3.406Z" transform="translate(151.134 57.429)" fill="#ffc2a9"/>
        <path id="Path_361" data-name="Path 361" d="M438.343,184.639s3.822,3.17,6.313.875,1.737-10.252,1.282-13.029-3.836,2.923-3.885,5.865-1.347,3.855-1.347,3.855Z" transform="translate(149.028 58.389)" fill="#ffc2a9"/>
        <path id="Path_362" data-name="Path 362" d="M395.121,169.826a.71.71,0,0,1-.445-1.261,37.463,37.463,0,0,1,8.581-4.931.711.711,0,0,1,.524,1.321,36.617,36.617,0,0,0-8.21,4.711.707.707,0,0,1-.45.159" transform="translate(134.092 55.615)" fill="#bb4000"/>
        <path id="Path_363" data-name="Path 363" d="M401.951,165.732a.717.717,0,0,1-.222-.036,21.519,21.519,0,0,0-5.9-1.124h0a.71.71,0,0,1,0-1.42,22,22,0,0,1,6.356,1.2.71.71,0,0,1-.228,1.384" transform="translate(134.331 55.468)" fill="#bb4000"/>
        <path id="Path_364" data-name="Path 364" d="M335.493,364.4l-7.777,6.488,8.927,14.15,7.776-6.487Z" transform="translate(111.417 123.888)" fill="#ffc2a9"/>
        <path id="Path_365" data-name="Path 365" d="M341.909,432.019l-32.5-51.525a8.512,8.512,0,0,1,2.435-2.483c4.155-3.071,11.987-6.069,16.8-8.155.564-.24,1.088-.47,1.556-.689a18.091,18.091,0,0,0,1.887-.976c3.579-2.258,4.965,1.3,4.965,1.3-1.824,8.439,9.567,9.506,9.227,14.54,0,0-.129,2.156-1.227,8.568s.858,14.9,2.115,22.387c1.628,9.661-.2,13.843-2.129,15.654a4.762,4.762,0,0,1-3.129,1.381" transform="translate(105.193 124.923)" fill="#777d15"/>
        <path id="Path_366" data-name="Path 366" d="M341.909,429.337l-32.5-51.525a8.511,8.511,0,0,1,2.435-2.483l33.194,52.626a4.762,4.762,0,0,1-3.129,1.381" transform="translate(105.193 127.604)" fill="#424208"/>
        <path id="Path_367" data-name="Path 367" d="M336,381.434s2.829-.5,3.4,2-2.929,4.419-2.929,4.419-3.84.708-.474-6.417" transform="translate(113.765 129.666)" fill="#fff"/>
        <path id="Path_368" data-name="Path 368" d="M327.836,386.6a1,1,0,0,1,.314-1.384,12.817,12.817,0,0,1,10.107-1.713,1,1,0,0,1-.6,1.916,10.8,10.8,0,0,0-8.437,1.494,1,1,0,0,1-1.384-.314" transform="translate(111.405 130.256)" fill="#fff"/>
        <path id="Path_369" data-name="Path 369" d="M338.6,392.836a1,1,0,0,1-.141-.7c.276-1.682-1.542-4.961-2.754-6.632a1,1,0,0,1,1.627-1.178c.371.512,3.609,5.088,3.107,8.135a1,1,0,0,1-1.84.372" transform="translate(114.069 130.523)" fill="#fff"/>
        <path id="Path_370" data-name="Path 370" d="M334.639,386.647a36.081,36.081,0,0,1-2.275-4.307c-1.333-2.929-1.372-5.743-.1-7.346a3.1,3.1,0,0,1,3.142-1.116,4.27,4.27,0,0,1,2.815,1.944c.015.023.029.046.043.068,2.244,3.559.8,10.5.623,11.28l-1.435-.318.038.043-1.573,1.5a11.8,11.8,0,0,1-1.274-1.751m1.784-9.593-.028-.044a2.11,2.11,0,0,0-1.418-1,.936.936,0,0,0-1.012.335c-.612.773-.734,2.649.378,5.093a30.577,30.577,0,0,0,2.538,4.658c.413-2.247.9-6.888-.458-9.044" transform="translate(112.648 127.087)" fill="#fff"/>
        <path id="Path_371" data-name="Path 371" d="M336.018,386.888l1.167-1.836c1.869,1.189,5,1.475,6.211.568.293-.22.594-.594.319-1.536a1.205,1.205,0,0,0-.749-.934c-1.246-.454-3.745.732-5.028,1.586l-1.21-1.808c.433-.289,4.3-2.8,6.98-1.825a3.764,3.764,0,0,1,.994,6.255c-2.145,1.612-6.3,1.045-8.684-.472" transform="translate(114.239 129.492)" fill="#fff"/>
        <path id="Path_372" data-name="Path 372" d="M312.129,385.312l-.966-1.53a13.368,13.368,0,0,0,10-2.435,17.172,17.172,0,0,0,6.889-11.928c.564-.24,1.088-.472,1.556-.689A18.666,18.666,0,0,1,322,382.536a14.784,14.784,0,0,1-9.866,2.776" transform="translate(105.789 125.361)" fill="#424208"/>
        <path id="Path_373" data-name="Path 373" d="M333.367,387.384a1,1,0,0,1,1.545-1.26l2.829,2.715a1,1,0,1,1-1.39,1.448l-2.829-2.715a.941.941,0,0,1-.155-.189" transform="translate(113.286 131.179)" fill="#fff"/>
        <path id="Path_374" data-name="Path 374" d="M333.486,390.667a1,1,0,0,1,1.545-1.26l2.829,2.715a1,1,0,0,1-1.39,1.449l-2.829-2.715a.941.941,0,0,1-.155-.189" transform="translate(113.326 132.295)" fill="#fff"/>
        <path id="Path_375" data-name="Path 375" d="M333.659,393.915a1,1,0,0,1,1.545-1.26l2.829,2.715a1,1,0,1,1-1.39,1.449l-2.829-2.715a.941.941,0,0,1-.155-.189" transform="translate(113.385 133.4)" fill="#fff"/>
        <path id="Path_376" data-name="Path 376" d="M334.069,397.318a1,1,0,0,1,1.545-1.26l2.829,2.715a1,1,0,1,1-1.39,1.448l-2.829-2.715a1.035,1.035,0,0,1-.155-.189" transform="translate(113.525 134.557)" fill="#fff"/>
        <path id="Path_377" data-name="Path 377" d="M334.8,400.826a1,1,0,0,1,1.545-1.26l2.829,2.715a1,1,0,0,1-1.39,1.449l-2.829-2.715a.939.939,0,0,1-.155-.189" transform="translate(113.774 135.749)" fill="#fff"/>
        <path id="Path_378" data-name="Path 378" d="M428.82,325.363c-.012.117-.029.229-.044.344,0,0-.3.565-.878,1.623-4.055,7.426-21.692,39.109-43.556,68.946-3.153,4.3-6.4,8.564-9.692,12.706q-2.177,2.736-4.383,5.388c-6.389,7.688-11.745,12.4-17.847,16.358-.647.419-1.3.828-1.967,1.237-1.266.771-2.571,1.521-3.931,2.271-.643.35-1.3.7-1.971,1.063,0,0-9.762-10.346-14.283-20.357,0,0,1.284-2.072,3.347-5.447q.607-.991,1.3-2.124c1.392-2.281,3.023-4.962,4.79-7.887,7.947-13.157,18.655-31.224,22.656-39.617,2.928-6.132,6.408-12.936,10.3-19.636q1.109-1.914,2.263-3.806c.087-.15.172-.291.265-.438,5.286-8.658,11.2-16.876,17.385-22.928l-13.7-82.769-.863-5.2,31.035-10.823,1.77-.615,7.39-2.577s.58,2.719,1.479,7.4q.163.846.338,1.778c4.028,21.244,13.021,74.333,8.8,105.111" transform="translate(112.284 71.763)" fill="#0c0b0b"/>
        <path id="Path_379" data-name="Path 379" d="M351.57,380.925c-.647.419-1.3.828-1.966,1.237l-11.942-15.935-1.1-1.471-3.795-5.064,1.3-2.124,3.716,4.962,1.1,1.467Z" transform="translate(113.133 121.566)" fill="#453f3f"/>
        <path id="Path_380" data-name="Path 380" d="M407.4,297.633c-.012.115-.031.229-.046.344,0,0-.3.567-.878,1.623a38.449,38.449,0,0,1-12.731-5.052,1.041,1.041,0,1,1,1.147-1.738,37.143,37.143,0,0,0,12.507,4.823" transform="translate(133.706 99.491)" fill="#453f3f"/>
        <path id="Path_381" data-name="Path 381" d="M398.851,311.6c-.154.147-15.751,15.548-60.93,97.82q-.6,1.105-1.221,2.23l-1.1-1.471,1.223-2.226c41.919-76.282,57.953-94.522,60.52-97.2-3.6-13.534-14.539-82.819-15.008-85.8a.837.837,0,1,1,1.654-.26c.115.736,11.658,73.87,15.094,86.076a.828.828,0,0,1-.229.832" transform="translate(114.096 76.148)" fill="#453f3f"/>
        <path id="Path_382" data-name="Path 382" d="M328.038,199.963s-2.416,22.12,2.571,34.459,70.184,6.244,86.836-4.781c6.83-4.522-7.521-46.542-7.521-46.542Z" transform="translate(111.328 62.25)" fill="#0c0b0b"/>
        <path id="Path_383" data-name="Path 383" d="M402.4,224.457a18.882,18.882,0,0,1-2.881-.752,19.384,19.384,0,0,1-4.28-2.092,22.777,22.777,0,0,1-3.816-3.137c-7.157-7.275-9.23-18.238-9.329-18.774a.838.838,0,0,1,1.648-.3c.023.131,2.182,11.533,9.451,18.457a19.994,19.994,0,0,0,2.965,2.357,17.7,17.7,0,0,0,4.086,1.967,18,18,0,0,0,1.818.5c.109.565.222,1.158.338,1.779" transform="translate(129.901 67.559)" fill="#453f3f"/>
        <path id="Path_384" data-name="Path 384" d="M368.436,233.546a.823.823,0,0,1-.793.844h-.007a.821.821,0,0,1-.871-.769c-.137-3.026-.3-6.125-.486-9.22q-.048-.816-.1-1.635c-.62-10.116-1.418-20.047-2.022-27.058-.05-.567-.1-1.118-.143-1.645-.134-1.54-.256-2.9-.36-4.059.555-.084,1.109-.172,1.658-.263.1,1.156.228,2.534.363,4.088.048.528.094,1.079.143,1.646.6,6.95,1.391,16.8,2.01,26.849.036.555.07,1.112.106,1.667.189,3.208.36,6.423.5,9.555" transform="translate(123.635 64.508)" fill="#453f3f"/>
        <path id="Path_385" data-name="Path 385" d="M372.587,222.636a21.864,21.864,0,0,1-2.928,1.108,17.027,17.027,0,0,1-1.654.41,12.008,12.008,0,0,1-1.585.2,5.783,5.783,0,0,1-2.8-.452,3.419,3.419,0,0,1-1.893-2.562c-.6-3.121-1.825-16.009-2.65-25.125-.054-.559-.1-1.107-.15-1.637-.13-1.458-.248-2.784-.347-3.911.553-.064,1.11-.13,1.666-.2.1,1.134.217,2.476.352,3.953q.07.792.146,1.639c.827,9.092,2.052,21.961,2.629,24.987a1.8,1.8,0,0,0,1,1.415,5.9,5.9,0,0,0,3.535.059c.563-.119,1.124-.275,1.648-.442a19.735,19.735,0,0,0,2.3-.891.847.847,0,0,1,1.118.368.8.8,0,0,1-.385,1.081" transform="translate(121.908 64.755)" fill="#453f3f"/>
        <path id="Path_386" data-name="Path 386" d="M347.523,386.576l1.6,13.125,16.731.063,1.025-13.8Z" transform="translate(118.151 131.219)" fill="#ffc2a9"/>
        <path id="Path_387" data-name="Path 387" d="M376.318,220.411l-.851,225.174-.256,3.567-24.839-.094c-.26-1.627-.846-4.253-1.623-7.635q-.253-1.109-.532-2.317c-3.186-13.782-8.642-37.282-9.542-57.7-1.288-29.153-.752-66.92-.752-66.92-2.754-21.673-7.027-68.611-9.148-92.637-.054-.572-.1-1.126-.147-1.672-.713-8.069-1.151-13.152-1.151-13.152,4-1.652,11.253-.478,18.962,1.741.557.158,1.115.32,1.676.493a230.64,230.64,0,0,1,28.2,11.147" transform="translate(111.336 70.122)" fill="#0c0b0b"/>
        <path id="Path_388" data-name="Path 388" d="M370.229,380.129l-.009,2.314-26.734-.1c-.168-.738-.347-1.511-.532-2.317Z" transform="translate(116.598 129.201)" fill="#453f3f"/>
        <path id="Path_389" data-name="Path 389" d="M369.064,290.912l-.008,2.149A39.3,39.3,0,0,1,359.7,294a75.2,75.2,0,0,1-11.134-.919,1.041,1.041,0,0,1,.35-2.053c.131.021,12.282,2.048,20.145-.117" transform="translate(118.213 98.904)" fill="#453f3f"/>
        <path id="Path_390" data-name="Path 390" d="M350.995,435.46l-1.7-.007q-.2-1.075-.427-2.315c-2.152-11.671-6.086-33.491-8.119-47.652-2.838-19.77-1.266-74.552-1.2-76.692-2.139-18.851-6.392-83.411-6.435-84.062a.837.837,0,1,1,1.67-.11c.044.651,4.3,65.308,6.436,84.042,0,.04.005.08.005.121-.02.561-1.675,56.542,1.183,76.465,2.047,14.264,6.029,36.313,8.166,47.895.151.828.3,1.605.426,2.317" transform="translate(113.25 76.1)" fill="#453f3f"/>
        <path id="Path_391" data-name="Path 391" d="M347.867,268.351a13.457,13.457,0,0,0,4.051-.642c17.842-5.543,9.541-50.568,9.179-52.482a1.107,1.107,0,0,0-2.176.411,146.576,146.576,0,0,1,2.185,23.442c.027,10.692-1.66,23.971-9.845,26.513a9.38,9.38,0,0,1-8.969-1.411c-8.146-6.125-12.064-26.581-11.725-43.623a1.107,1.107,0,0,0-1.085-1.128h-.017a1.107,1.107,0,0,0-1.111,1.084A109.948,109.948,0,0,0,330.86,246.1c1.546,6.755,4.555,15.683,10.1,19.854a11.345,11.345,0,0,0,6.9,2.4" transform="translate(111.627 72.867)" fill="#efad1a"/>
        <path id="Path_392" data-name="Path 392" d="M375.542,420.358c0,.15-.005.3-.009.441-.016.67-.047,1.272-.078,1.788-.072,1.135-.158,1.834-.158,1.834l-37.695-.143a20.665,20.665,0,0,1-.028-3.622c.261-3.851,1.562-9.929,6.784-13.93,7.147-5.483,4.391-4.343,5.862-6.849.166-.28,1.465-4.541,1.6-4.835,1.235-2.6,2.369-3.832,9.123-3.807,8.956.034,9.728,4.383,10.677,6.676a43,43,0,0,1,1.47,5.326c.222.954.445,1.972.662,3.008.543,2.6,1.048,5.314,1.391,7.48a39.08,39.08,0,0,1,.4,6.633" transform="translate(114.747 133.012)" fill="#777d15"/>
        <path id="Path_393" data-name="Path 393" d="M367.1,417.322c0,.15-.005.3-.009.441-.016.67-.047,1.272-.078,1.788a10.517,10.517,0,0,1-3.9-5.092c-2.309-6.361,1.306-13.972,1.458-14.294l.075.036c.222.954.445,1.972.662,3.008-.859,2.591-1.853,6.948-.509,10.643a8.754,8.754,0,0,0,2.3,3.469" transform="translate(123.191 136.048)" fill="#424208"/>
        <path id="Path_394" data-name="Path 394" d="M375.534,413.334c-.059,2.145-.236,3.621-.236,3.621l-37.7-.142a20.735,20.735,0,0,1-.029-3.622Z" transform="translate(114.748 140.477)" fill="#424208"/>
        <path id="Path_395" data-name="Path 395" d="M354.679,398.548a1.044,1.044,0,0,1-.441-.1c-.954-.434-9.34-4.372-9.98-8.457a3.392,3.392,0,0,1,1.206-3.138,3.153,3.153,0,0,1,3.061-.844c3.8,1.02,6.652,9.456,7.184,11.137a1.074,1.074,0,0,1-1.029,1.4m-6.956-10.5a1.2,1.2,0,0,0-.811.391,1.27,1.27,0,0,0-.531,1.218c.271,1.729,3.461,4.009,6.372,5.627-1.317-3.283-3.232-6.783-4.786-7.2a.932.932,0,0,0-.244-.036" transform="translate(117.027 131.199)" fill="#fff"/>
        <path id="Path_396" data-name="Path 396" d="M353.662,398.54a1.074,1.074,0,0,1-1.018-1.407c.547-1.676,3.461-10.091,7.269-11.082a3.156,3.156,0,0,1,3.054.866,3.4,3.4,0,0,1,1.183,3.149c-.673,4.079-9.088,7.953-10.044,8.38a1.052,1.052,0,0,1-.444.094M360.7,388.1a.994.994,0,0,0-.244.033c-1.557.4-3.5,3.89-4.84,7.164,2.923-1.6,6.13-3.855,6.413-5.578a1.268,1.268,0,0,0-.521-1.221,1.209,1.209,0,0,0-.808-.4" transform="translate(119.874 131.215)" fill="#fff"/>
        <path id="Path_397" data-name="Path 397" d="M353.175,393.046s-1.753-.835-1.9,1.572c-.118,1.95,1.269,2.374,1.838,2.049a1.627,1.627,0,0,0,1.793-.591c.6-.954.218-3.985-1.734-3.03" transform="translate(119.425 133.565)" fill="#fff"/>
        <path id="Path_398" data-name="Path 398" d="M347.191,399.237a1.076,1.076,0,0,1-.855-1.721,9.175,9.175,0,0,1,8.849-3.484,1.075,1.075,0,0,1-.429,2.106,7.015,7.015,0,0,0-6.7,2.669,1.074,1.074,0,0,1-.864.429" transform="translate(117.674 133.92)" fill="#fff"/>
        <path id="Path_399" data-name="Path 399" d="M361.684,400.661a1.074,1.074,0,0,1-.977-.634c-1.726-3.838-7.8-4.789-7.866-4.8a1.074,1.074,0,1,1,.319-2.125c.3.044,7.306,1.146,9.507,6.042a1.075,1.075,0,0,1-.984,1.516" transform="translate(119.648 133.644)" fill="#fff"/>
        <path id="Path_400" data-name="Path 400" d="M358.524,400.721a1.053,1.053,0,0,1-.271-.036,18.624,18.624,0,0,0-8.738-.212,1.075,1.075,0,0,1-.565-2.074,20.653,20.653,0,0,1,9.85.208,1.075,1.075,0,0,1-.276,2.115" transform="translate(118.367 135.282)" fill="#fff"/>
        <path id="Path_401" data-name="Path 401" d="M357.311,403.257a1.042,1.042,0,0,1-.269-.036,18.819,18.819,0,0,0-8.741-.212,1.075,1.075,0,0,1-.563-2.074,20.651,20.651,0,0,1,9.85.208,1.075,1.075,0,0,1-.277,2.115" transform="translate(117.955 136.144)" fill="#fff"/>
        <path id="Path_402" data-name="Path 402" d="M355.887,406.141a1.112,1.112,0,0,1-.271-.035,18.823,18.823,0,0,0-8.739-.213,1.075,1.075,0,0,1-.564-2.074,20.657,20.657,0,0,1,9.852.208,1.075,1.075,0,0,1-.277,2.115" transform="translate(117.471 137.124)" fill="#fff"/>
        <path id="Path_403" data-name="Path 403" d="M352.491,199.569a43.862,43.862,0,0,1-4.667,12.3,27.026,27.026,0,0,1-8.643,9.507,19.565,19.565,0,0,1-10.7,3.085c-.052-.572-.1-1.127-.147-1.674a18.009,18.009,0,0,0,9.945-2.819,25.066,25.066,0,0,0,7.866-8.591,43,43,0,0,0,4.7-12.123.837.837,0,1,1,1.646.311" transform="translate(111.627 67.512)" fill="#453f3f"/>
        <path id="Path_404" data-name="Path 404" d="M327.546,212.7l-2.116,12.611s23.852,5.426,38.912,1.625,51.371-7.289,57.574-7.516L418,202.616s-46.619,14.5-90.457,10.085" transform="translate(110.64 68.885)" fill="#fff"/>
        <path id="Path_405" data-name="Path 405" d="M380.276,100.657s8.935-17.985-9.86-28.055c-13.148-7.043-38.577-8.42-46.4,7.563-7.276,14.862,8.914,27.449,8.914,27.449s34.744,7.564,47.347-6.957" transform="translate(109.52 22.979)" fill="#ef6931"/>
        <path id="Path_406" data-name="Path 406" d="M345.674,76.614s-16.287,2.156-10.421,10.859c3.1,4.606,20.735,7.18,20.735,7.18s3.516-15.9-10.314-18.039" transform="translate(113.546 26.047)" fill="#0c0b0b"/>
        <path id="Path_407" data-name="Path 407" d="M419.548,237.61s-60.376,20.023-86.323,9.815c0,0-8.135-2.565-11.344-18.535-.1-.521-.2-1.056-.3-1.609-1.348-7.9-1.518-18.821.831-33.881,2.817-18.067-.95-27.314-2.511-45.319-.055-.634-.111-1.278-.163-1.936-.166-1.947-.32-4-.474-6.176-1.66-23.769-9.186-33.956,2.681-40.969s27.415-12.361,27.415-12.361,13.2,4.242,22.521.086c0,0,14.139,6.995,25.015,11.005s7.188,32.775,10.558,49.311,9.137,29.7,14.288,57.139c4.709,25.088-2.195,33.43-2.195,33.43" transform="translate(107.225 29.455)" fill="#ef6931"/>
        <path id="Path_408" data-name="Path 408" d="M358.759,99.518a.676.676,0,0,1-.117-1.343c6.271-1.1,9.354-7.012,9.384-7.071a.677.677,0,0,1,1.206.615c-.137.268-3.428,6.571-10.355,7.788a.593.593,0,0,1-.118.011" transform="translate(121.741 30.848)" fill="#bb4000"/>
        <path id="Path_409" data-name="Path 409" d="M342.72,123.1l1.213,13.924,39.872-3.012-2.482-12.98Z" transform="translate(116.518 41.147)" fill="#bb4000"/>
        <path id="Path_410" data-name="Path 410" d="M398.338,190.035a.867.867,0,0,1-.862-.808c-.478-6.916-5.669-24.481-8.77-34.977-.6-2.041-1.124-3.8-1.5-5.116-2.25-7.863-4.766-26.335-4.872-27.117a.868.868,0,1,1,1.721-.233c.025.19,2.606,19.13,4.82,26.873.374,1.305.894,3.065,1.5,5.1,3.121,10.563,8.347,28.244,8.837,35.35a.866.866,0,0,1-.805.925.516.516,0,0,1-.064,0" transform="translate(129.984 41.148)" fill="#bb4000"/>
        <path id="Path_411" data-name="Path 411" d="M419.721,193.07s2.542,7.9-1.112,13.188c0,0-54.242,18.6-90.549,9.688,0,0-3.256-3.954-4.139-12.048,0,0,43.663,11.031,95.8-10.828" transform="translate(110.126 65.64)" fill="#bb4000"/>
        <path id="Path_412" data-name="Path 412" d="M360.4,110.131c10.042.038,13.22-8.95,13.252-9.045a.658.658,0,0,0-1.245-.425,12.618,12.618,0,0,1-13.01,8.118c-10.263-.679-23.426-7.511-23.557-7.579a.657.657,0,1,0-.61,1.164c.547.287,13.536,7.03,24.078,7.728.372.025.737.038,1.091.039" transform="translate(113.851 34.071)" fill="#bb4000"/>
        <path id="Path_413" data-name="Path 413" d="M398.543,168.248s7.7,15.228,5.107,27.057c0,0-28.956,13.444-63.1,6.449a222.956,222.956,0,0,0-.505-28.391s37.451-5.525,58.5-5.115" transform="translate(115.609 57.193)" fill="#bb4000"/>
        <path id="Path_414" data-name="Path 414" d="M364.073,87.537l-.611,5.96a23.825,23.825,0,0,0-2.262,1.261c-7.212,6.043-16.613-.606-21.4-5.4l2.163-18.95,19.478,15.085Z" transform="translate(115.524 23.938)" fill="#ffc2a9"/>
        <path id="Path_415" data-name="Path 415" d="M362.174,84.986l-.611,5.96a18.5,18.5,0,0,1-2.262,1.261c-8.454-4.391-13.92-14.295-13.92-14.295l14.156,5.032Z" transform="translate(117.423 26.489)" fill="#0c0b0b"/>
        <path id="Path_416" data-name="Path 416" d="M338.818,67.464a18.461,18.461,0,0,1-3.781-7.75c-.694-4.151,3.57-6.845,3.57-6.845a5.968,5.968,0,0,1,.4-6.589c2.659-4.094,9.123-3.674,9.123-3.674s-1.412-3.438,2.889-5.79,8.723,1.454,8.723,1.454a7.031,7.031,0,0,1,6.226-4.356c4.741-.22,5.765,4.52,5.765,4.52s10.061-4.3,14.556,2.186c6.59,9.511-7.718,14.864-7.718,14.864-22.671-7.653-38.66,13.144-38.66,13.144Z" transform="translate(113.88 11.528)" fill="#efad1a"/>
        <path id="Path_417" data-name="Path 417" d="M363.953,46.537s15.826,9.066,5.194,21.089c0,0-5.929-17.185-5.194-21.089" transform="translate(123.715 15.822)" fill="#efad1a"/>
        <path id="Path_418" data-name="Path 418" d="M365.624,64.423s3.795-3.651,5.3.544-.8,12.139-5.814,10.286Z" transform="translate(124.129 21.402)" fill="#f59876"/>
        <path id="Path_419" data-name="Path 419" d="M375.96,84.805s-1.246,12.324-14.06,10.981c-12.735-1.331-20.389-12.223-20.794-12.732l-.012-.013.126-2.6.655-13.516.348-7.224s-.3-13.1,12.237-14.2c9.159-.8,17.429,1.552,21.2,6.674a11.086,11.086,0,0,1,2.148,6.779l-.926,12.946-.227,3.173Z" transform="translate(115.965 15.415)" fill="#ffc2a9"/>
        <path id="Path_420" data-name="Path 420" d="M359.091,70.532a.406.406,0,0,1-.135-.789l3.814-1.347-2.191-1.976a.4.4,0,0,1-.134-.3v-8.19a.406.406,0,0,1,.812,0v8.01l2.563,2.313a.405.405,0,0,1-.137.683l-4.457,1.574a.4.4,0,0,1-.135.023" transform="translate(121.946 19.556)" fill="#0c0b0b"/>
        <path id="Path_421" data-name="Path 421" d="M358.056,74.448a6.973,6.973,0,0,1-2.711-1.39.529.529,0,0,1,.706-.788,5.645,5.645,0,0,0,4.624,1.187.529.529,0,1,1,.241,1.03,5.961,5.961,0,0,1-2.861-.04" transform="translate(120.751 24.524)" fill="#f59876"/>
        <path id="Path_422" data-name="Path 422" d="M360.505,73a7.325,7.325,0,0,1-5.958-3.781.6.6,0,0,1,1.077-.517c.087.177,2.187,4.34,7.709,2.762a.6.6,0,1,1,.328,1.148,9.446,9.446,0,0,1-3.157.389" transform="translate(120.519 23.241)" fill="#0c0b0b"/>
        <path id="Path_423" data-name="Path 423" d="M360.933,57.544c1.206-1.415.236-3.189-1.769-3.566-2.2-.413-6.716-.84-8.122,2.21-1.883,4.084,4.829,3.047,7.657,2.547a3.745,3.745,0,0,0,2.234-1.191" transform="translate(119.236 18.253)" fill="#efad1a"/>
        <path id="Path_424" data-name="Path 424" d="M362.967,57.976A2.389,2.389,0,0,1,365,54.626c1.845-.222,5.562-.268,6.175,2.837.819,4.159-4.419,2.589-6.614,1.867a2.671,2.671,0,0,1-1.6-1.353" transform="translate(123.323 18.541)" fill="#efad1a"/>
        <path id="Path_425" data-name="Path 425" d="M376.831,52.169a2.229,2.229,0,0,1-.674,1.047c-2.759,2.357-8.549.827-13.83-1.419a9.635,9.635,0,0,0-9.519,1.323c.981,5.377-4.2,5.273-3.511,9.341a31.729,31.729,0,0,1-.268,9.251l-3.157-.75c-.5-1.931-1.948-4.084-5.5-5.247-3.81.3-3.227-7.49-.674-13.445,0,0,3.4-5.676,15.938-6.775,9.159-.8,17.429,1.553,21.2,6.676" transform="translate(114.793 15.415)" fill="#efad1a"/>
        <path id="Path_426" data-name="Path 426" d="M357.3,65.593c-.092.9-2.014,1.435-4.293,1.2s-4.053-1.15-3.961-2.047,2.014-1.435,4.293-1.2,4.053,1.15,3.961,2.047" transform="translate(118.667 21.586)" fill="#f59876"/>
        <g id="Group_10" data-name="Group 10" transform="translate(487.659 87.121)" opacity="0.8">
          <g id="Group_9" data-name="Group 9">
            <g id="Group_8" data-name="Group 8" clip-path="url(#clip-path-3)">
              <path id="Path_427" data-name="Path 427" d="M368.892,68.375c-.322,0-.658-.019-1-.054-2.278-.234-4.051-1.152-3.958-2.049s2.014-1.435,4.292-1.2c.308.032.607.076.892.133Z" transform="translate(-363.93 -65.017)" fill="#f59876"/>
            </g>
          </g>
        </g>
        <path id="Path_428" data-name="Path 428" d="M356.783,62.031c-.126,1.233-.788,2.173-1.477,2.1s-1.147-1.127-1.02-2.358.788-2.173,1.477-2.1,1.146,1.127,1.02,2.358" transform="translate(120.443 20.286)" fill="#0c0b0b"/>
        <path id="Path_429" data-name="Path 429" d="M365.881,62.964c-.126,1.233-.788,2.173-1.478,2.1s-1.144-1.128-1.018-2.36.788-2.173,1.477-2.1,1.146,1.127,1.02,2.358" transform="translate(123.536 20.604)" fill="#0c0b0b"/>
        <path id="Path_430" data-name="Path 430" d="M345.63,70.06c-.072.13-2.08,3.726-4.525,4.588l-.011-.013.126-2.6a8.893,8.893,0,0,0,4.41-1.971" transform="translate(115.965 23.819)" fill="#0c0b0b"/>
        <path id="Path_431" data-name="Path 431" d="M345.878,64.509s-4.248-7.123-8.391-2.293c-3.414,3.98,1.064,15.725,7.344,12.5Z" transform="translate(114.338 20.581)" fill="#ffc2a9"/>
        <path id="Path_432" data-name="Path 432" d="M339.107,69.43a1.141,1.141,0,1,0,1.252-1.018,1.141,1.141,0,0,0-1.252,1.018" transform="translate(115.287 23.256)" fill="#fff"/>
        <path id="Path_433" data-name="Path 433" d="M343.575,71.813l.056,0a.51.51,0,0,0,.507-.513,9.54,9.54,0,0,0-4.769-8.227.509.509,0,0,0-.472.9,8.516,8.516,0,0,1,4.221,7.331.509.509,0,0,0,.457.5" transform="translate(115.125 21.424)" fill="#0c0b0b"/>
        <path id="Path_434" data-name="Path 434" d="M339.14,67.412a.5.5,0,0,0,.331-.08c.477-.312,1.9-1.053,2.755-.74a.51.51,0,0,0,.352-.957c-1.483-.547-3.448.7-3.666.844a.509.509,0,0,0,.228.933" transform="translate(115.145 22.268)" fill="#0c0b0b"/>
        <path id="Path_435" data-name="Path 435" d="M375.45,63.185l-7.508-.505-.107,1.037.015,0,7.531.508a.521.521,0,0,0,.555-.485.51.51,0,0,0-.485-.557" transform="translate(125.057 21.31)" fill="#fff"/>
        <path id="Path_436" data-name="Path 436" d="M354.291,71.59A8.5,8.5,0,1,1,363.616,64a8.511,8.511,0,0,1-9.325,7.59m1.632-15.914a7.5,7.5,0,1,0,6.692,8.221,7.5,7.5,0,0,0-6.692-8.221" transform="translate(117.856 18.573)" fill="#fff"/>
        <path id="Path_437" data-name="Path 437" d="M369.2,73.119a8.5,8.5,0,1,1,9.325-7.59,8.512,8.512,0,0,1-9.325,7.59m1.632-15.914a7.5,7.5,0,1,0,6.692,8.221,7.5,7.5,0,0,0-6.692-8.221" transform="translate(122.924 19.093)" fill="#fff"/>
        <path id="Path_438" data-name="Path 438" d="M339.243,61.832a.5.5,0,0,1-.175-.051.5.5,0,0,1-.222-.677c2.826-5.6,11.39-1.7,11.474-1.664a.5.5,0,0,1-.423.914c-.078-.036-7.764-3.525-10.152,1.2a.5.5,0,0,1-.5.273" transform="translate(115.182 19.748)" fill="#fff"/>
        <path id="Path_439" data-name="Path 439" d="M363.267,61.445a.508.508,0,0,1-.342-.185c-1.244-1.552-3.469-.572-3.491-.561a.5.5,0,1,1-.414-.918c1.018-.46,3.308-.872,4.69.848a.5.5,0,0,1-.078.708.5.5,0,0,1-.366.109" transform="translate(121.959 20.188)" fill="#fff"/>
        <path id="Path_440" data-name="Path 440" d="M345.114,83.942s11.706,8.659,15.12,8.636a18.97,18.97,0,0,1-11.477,5.755c-9.211.87-24.727-1.19-24.727-1.19s11.468-8.893,21.083-13.2" transform="translate(110.164 28.539)" fill="#ef6931"/>
        <path id="Path_441" data-name="Path 441" d="M342.516,100.364c-9.474,0-16.5-6.4-16.8-6.682a.677.677,0,0,1,.919-.993c.071.066,7.233,6.571,16.434,6.315a.676.676,0,0,1,.039,1.352c-.2.005-.394.008-.59.008" transform="translate(110.663 31.451)" fill="#bb4000"/>
        <path id="Path_442" data-name="Path 442" d="M360.275,84.157s-2.315,6.695-9.226,8.348a7.351,7.351,0,0,0,8.508,5.338,19.975,19.975,0,0,0,10.9-4.957s-4.669-8.71-10.181-8.73" transform="translate(119.35 28.612)" fill="#ef6931"/>
        <path id="Path_443" data-name="Path 443" d="M353.47,205.321a.493.493,0,0,0,.494-.469c2.275-45.53-10.2-113.882-10.33-114.567a.493.493,0,0,0-.97.18c.126.683,12.584,68.925,10.314,114.338a.493.493,0,0,0,.469.517h.023" transform="translate(116.496 30.558)" fill="#fff"/>
        <path id="Path_444" data-name="Path 444" d="M378.658,202.391h.015a.493.493,0,0,0,.48-.507c-1.447-55-19.908-111.175-20.094-111.737a.493.493,0,0,0-.937.311c.186.56,18.6,56.6,20.046,111.451a.493.493,0,0,0,.49.481" transform="translate(121.746 30.534)" fill="#fff"/>
        <path id="Path_445" data-name="Path 445" d="M356.78,227.368s-28.764,3.728-47.957-8.668c-10.9-7.039-18.707-19.274-16.416-40.34.034-.319.071-.641.11-.962,5.663-46.543,27.116-71.483,34.7-78.99a9.989,9.989,0,0,1,8.439-2.866c8.643,1.274,14.03,13.992-2.395,73.313-6.169,29.248,22.134,32.8,22.134,32.8Z" transform="translate(99.277 32.448)" fill="#ef6931"/>
        <path id="Path_446" data-name="Path 446" d="M322.382,169.34a.862.862,0,0,1-.275-.054.9.9,0,0,1-.531-1.152c.129-.347,12.875-35.008,13.814-53.555a.9.9,0,0,1,1.79.091c-.953,18.82-13.792,53.736-13.922,54.086a.894.894,0,0,1-.876.584" transform="translate(109.31 38.665)" fill="#bb4000"/>
        <path id="Path_447" data-name="Path 447" d="M331.232,127.917a.9.9,0,0,1-.706-1.4l5.572-8.273a.9.9,0,0,1,1.487,1l-5.572,8.273a.9.9,0,0,1-.781.4" transform="translate(112.32 40.067)" fill="#bb4000"/>
        <path id="Path_448" data-name="Path 448" d="M336.425,203.224a.9.9,0,0,1-.8-.578c-2.975-7.828-1.356-29.534-1.285-30.454a.9.9,0,1,1,1.788.135c-.017.222-1.66,22.225,1.174,29.682a.9.9,0,0,1-.52,1.156.908.908,0,0,1-.354.058" transform="translate(113.497 58.26)" fill="#bb4000"/>
        <path id="Path_449" data-name="Path 449" d="M347.971,193.988a.9.9,0,0,0-1.1-.639,55.324,55.324,0,0,1-25.3-.371.889.889,0,0,0-1.1.989l0,.02a.885.885,0,0,0,.65.728,55.906,55.906,0,0,0,26.207.37.9.9,0,0,0,.636-1.1" transform="translate(108.952 65.598)" fill="#bb4000"/>
        <path id="Path_450" data-name="Path 450" d="M338.993,175.4q-.549-.022-1.127-.082c-3.828-.4-9.338-2.3-13.85-9.109a.9.9,0,1,1,1.494-.99c7.868,11.866,18.935,7.675,19.047,7.631a.9.9,0,0,1,.657,1.668,16.534,16.534,0,0,1-6.22.882" transform="translate(110.108 56.035)" fill="#bb4000"/>
        <path id="Path_451" data-name="Path 451" d="M308.824,197.661c-10.9-7.039-18.707-19.276-16.416-40.34,7.508,9,19.479,26.069,16.416,40.34" transform="translate(99.277 53.486)" fill="#bb4000"/>
        <path id="Path_452" data-name="Path 452" d="M451.847,157.678h-27.6a2.436,2.436,0,0,1-2.436-2.435v-27.6a2.435,2.435,0,0,1,2.436-2.435h27.6a2.435,2.435,0,0,1,2.436,2.435v27.6a2.436,2.436,0,0,1-2.436,2.435" transform="translate(143.407 42.568)" fill="#777d15"/>
        <path id="Path_453" data-name="Path 453" d="M431.343,147.974a1.451,1.451,0,0,1-1.285-.779l-2.917-5.58a1.451,1.451,0,1,1,2.571-1.344l2.057,3.934,13.744-12.2a1.451,1.451,0,0,1,1.926,2.171l-15.132,13.429a1.454,1.454,0,0,1-.963.366" transform="translate(145.163 44.756)" fill="#fff"/>
        <path id="Path_454" data-name="Path 454" d="M425.782,149.273l1.138,7.339a1.321,1.321,0,0,0,2.451.454l4.5-7.83Z" transform="translate(144.757 50.738)" fill="#777d15"/>
      </g>
    </g>
  </g>
</svg>
