<svg xmlns="http://www.w3.org/2000/svg" xmlns:xlink="http://www.w3.org/1999/xlink" width="295.332" height="367.179" viewBox="0 0 295.332 367.179">
  <defs>
    <clipPath id="clip-path">
      <rect id="Rectangle_1" data-name="Rectangle 1" width="295.332" height="367.179" fill="none"/>
    </clipPath>
  </defs>
  <g id="Group_161" data-name="Group 161" transform="translate(136 3722)">
    <g id="Group_160" data-name="Group 160" transform="translate(-136 -3722)">
      <g id="Group_159" data-name="Group 159" clip-path="url(#clip-path)">
        <path id="Path_55" data-name="Path 55" d="M295.139,1.818a30.179,30.179,0,0,0-4.489,3.115Q175.071,120.4,59.642,236.024c-3.328,3.338-4.92,3.59-8.342.077C35.03,219.4,18.478,202.978,1.874,186.61c-2.477-2.441-2.513-3.663-.023-6.147Q90.822,91.73,179.6,2.809c1.72-1.721,3.39-2.816,6.023-2.809Q238.837.132,292.05.072c.642,0,1.284.108,1.926.166l1.163,1.58" fill="#54c4f7"/>
        <path id="Path_56" data-name="Path 56" d="M140.676,211.818q20.22-20.391,40.417-40.806a6.273,6.273,0,0,1,4.915-1.845q53.724.054,107.448.045a6.881,6.881,0,0,1,1.408.319c-.625,2.012-2.268,2.976-3.507,4.217q-45.2,45.266-90.43,90.494c-1.376,1.377-3.242,2.449-3.539,4.67a1.192,1.192,0,0,1-1.3.185c-4.764-3.675-8.677-8.24-12.924-12.453q-19.676-19.52-39.18-39.213c-1.512-1.527-4.067-2.659-3.306-5.613" fill="#54c4f7"/>
        <path id="Path_57" data-name="Path 57" d="M199.061,270.98c3.815,3.691,7.682,7.33,11.438,11.081q40.272,40.223,80.5,80.488c1.238,1.239,2.414,2.54,4.333,4.566h-5.216c-34.286,0-68.572-.039-102.857.064a9.908,9.908,0,0,1-7.837-3.206c-12.916-13.2-26-26.239-39.023-39.333-.278-1.256.377-1.837,1.5-2.082,8.615-1.857,16.516-5.839,24.9-8.391.622-.237,1.265-.406,1.893-.618,7.858-2.649,12.68-2.78,9.9-13.923-.683-2.742.261-5.564,1.551-8.17,3.742-7.562,9.209-13.738,15.389-19.346.961-.871,2-1.838,3.524-1.13" fill="#01579a"/>
        <path id="Path_58" data-name="Path 58" d="M141.816,323.18c-.47.489-.939.979-1.413,1.464Q113.2,297.581,85.965,270.559c-1.63-1.612-1.914-2.6-.139-4.355q27.491-27.126,54.85-54.386c.757,1.955,2.462,3.117,3.855,4.52q26.035,26.246,52.115,52.447c-.074,2.283-1.9,3.414-3.26,4.794-6.647,6.739-13.393,13.379-20.035,20.124-8.828,8.676-17.489,17.52-26.3,26.21-1.473,1.453-2.7,3.443-5.232,3.267" fill="#29b5f5"/>
        <path id="Path_59" data-name="Path 59" d="M172.693,292.742l23.954-23.957a.635.635,0,0,0,.744.128q.831,1.031,1.67,2.066a62.754,62.754,0,0,0-18.228,21.883c-1.578,3.166-1.349,6.455-.724,9.707,1.275,6.63.5,8.321-5.7,10.424-2.483.843-4.868,2.138-7.6,2.116-2.832-5.963-1.625-11.513,1.8-16.784,1.255-1.929,3.166-3.393,4.08-5.583" fill="#01467d"/>
        <path id="Path_60" data-name="Path 60" d="M172.692,292.742c-.2.787-.152,1.788-.629,2.329-5.123,5.817-5.925,12.725-5.254,20.038q-11.44,4.389-22.885,8.771a1.591,1.591,0,0,1-2.108-.7l30.876-30.437" fill="#003055"/>
      </g>
    </g>
  </g>
</svg>
